<?xml version="1.0" standalone="no"?>
<!DOCTYPE svg PUBLIC "-//W3C//DTD SVG 20010904//EN"
 "http://www.w3.org/TR/2001/REC-SVG-20010904/DTD/svg10.dtd">
<svg version="1.0" xmlns="http://www.w3.org/2000/svg"
 width="512.000000pt" height="512.000000pt" viewBox="0 0 512.000000 512.000000"
 preserveAspectRatio="xMidYMid meet">

<g transform="translate(0.000000,512.000000) scale(0.100000,-0.100000)"
fill="#000000" stroke="none">
<path d="M2355 5030 c-304 -25 -601 -108 -880 -245 -261 -128 -459 -269 -665
-475 -205 -204 -347 -403 -475 -665 -117 -237 -190 -475 -232 -752 -23 -155
-23 -510 1 -663 44 -292 114 -518 236 -765 129 -261 264 -449 470 -655 188
-189 375 -327 604 -446 701 -364 1530 -375 2231 -30 263 130 461 272 665 476
206 206 347 404 475 665 117 237 194 495 236 785 16 110 16 490 0 600 -42 290
-119 548 -236 785 -127 259 -270 460 -470 661 -203 203 -386 336 -640 464
-413 209 -862 297 -1320 260z m535 -415 c628 -106 1158 -472 1472 -1015 272
-470 347 -1029 212 -1565 -89 -350 -279 -680 -544 -945 -215 -216 -469 -379
-752 -484 -348 -129 -760 -160 -1133 -85 -703 141 -1284 640 -1539 1321 -75
202 -114 406 -123 643 -40 1091 754 2012 1847 2145 110 13 448 4 560 -15z"/>
<path d="M2370 4469 c-750 -77 -1389 -587 -1627 -1297 -288 -860 60 -1795 841
-2262 327 -196 744 -294 1117 -262 250 22 469 80 684 181 475 225 850 656
1004 1156 118 382 118 768 0 1150 -154 500 -529 931 -1004 1156 -316 149 -676
212 -1015 178z m343 -463 c73 -35 138 -101 174 -174 25 -50 28 -68 28 -152 0
-84 -3 -102 -28 -152 -36 -74 -101 -139 -175 -175 -50 -25 -68 -28 -152 -28
-84 0 -102 3 -152 28 -156 77 -238 249 -198 416 26 109 131 221 241 257 71 23
194 14 262 -20z m-1137 -660 c460 -106 697 -139 984 -139 287 -1 492 28 965
135 198 44 223 44 284 -8 78 -65 61 -212 -30 -259 -53 -28 -571 -136 -811
-170 l-48 -6 0 -117 c0 -161 17 -459 36 -627 30 -272 67 -428 165 -688 63
-168 68 -197 44 -254 -20 -48 -41 -71 -87 -94 -69 -35 -156 -20 -210 38 -71
74 -221 545 -253 791 l-7 52 -48 0 -48 0 -7 -52 c-32 -246 -182 -717 -253
-791 -69 -75 -197 -74 -264 0 -24 27 -48 87 -48 122 0 16 29 108 65 204 102
277 141 456 170 782 17 197 32 635 21 635 -27 0 -302 46 -414 70 -429 89 -467
102 -504 170 -24 45 -20 129 8 168 21 28 96 72 124 72 9 0 83 -15 166 -34z"/>
</g>
</svg>
