<?xml version="1.0" standalone="no"?>
<!DOCTYPE svg PUBLIC "-//W3C//DTD SVG 20010904//EN"
 "http://www.w3.org/TR/2001/REC-SVG-20010904/DTD/svg10.dtd">
<svg version="1.0" xmlns="http://www.w3.org/2000/svg"
 width="1024.000000pt" height="1024.000000pt" viewBox="0 0 1024.000000 1024.000000"
 preserveAspectRatio="xMidYMid meet">

<g transform="translate(0.000000,1024.000000) scale(0.100000,-0.100000)"
fill="#000000" stroke="none">
<path d="M4826 9081 l-39 -6 -45 -128 -45 -127 -62 -30 c-35 -17 -90 -50 -123
-74 l-60 -45 -94 5 c-51 3 -110 6 -131 8 -35 4 -40 1 -62 -35 -34 -52 -138
-263 -160 -321 l-17 -47 86 -97 86 -96 0 -94 0 -94 -53 -62 c-29 -35 -70 -84
-90 -110 l-38 -47 61 -123 c80 -161 141 -258 160 -258 9 0 69 7 134 15 l118
16 76 -51 c43 -28 98 -61 123 -73 l47 -22 46 -126 47 -126 46 -7 c59 -8 273
-8 349 0 l59 7 42 131 42 131 53 20 c29 11 86 42 126 69 l73 48 111 -17 c62
-9 118 -19 125 -22 27 -11 244 381 226 410 -4 7 -41 53 -84 102 l-76 90 -7 85
-7 85 91 105 c49 58 90 108 90 111 0 14 -86 192 -143 297 l-62 114 -80 -6
c-44 -4 -102 -9 -130 -12 -47 -5 -53 -3 -105 37 -30 23 -87 58 -127 77 l-72
36 -40 118 c-23 65 -41 122 -41 127 0 18 -327 27 -424 12z m306 -502 c212 -44
394 -235 433 -454 26 -148 15 -245 -42 -365 -45 -94 -150 -203 -239 -248 -220
-111 -496 -72 -659 94 -233 238 -231 580 4 814 145 144 315 198 503 159z"/>
<path d="M4688 8204 c-81 -44 -75 -179 10 -220 63 -29 131 8 152 85 14 52 -6
103 -52 131 -39 23 -73 25 -110 4z"/>
<path d="M5211 8195 c-63 -53 -63 -146 0 -199 76 -64 189 -4 189 99 0 105
-112 164 -189 100z"/>
<path d="M4606 7953 c-54 -16 -54 -17 -5 -120 139 -291 533 -350 752 -113 53
57 99 136 112 191 6 24 3 28 -38 42 -35 12 -55 13 -96 4 -39 -7 -66 -7 -104 3
-48 11 -56 10 -100 -10 -60 -28 -97 -75 -112 -143 l-12 -52 -12 52 c-25 104
-113 169 -204 152 -26 -4 -66 -5 -90 0 -29 5 -59 3 -91 -6z"/>
<path d="M6049 8616 c50 -90 87 -184 116 -299 13 -49 25 -90 27 -92 2 -2 102
-20 222 -40 208 -34 715 -130 745 -141 7 -2 -68 -45 -168 -95 -99 -50 -181
-94 -181 -97 0 -4 21 -18 47 -32 346 -183 725 -526 983 -890 404 -570 589
-1261 489 -1825 -11 -62 -46 -195 -53 -202 -2 -2 -7 49 -11 114 -23 394 -129
771 -326 1166 -227 453 -587 877 -999 1179 -112 81 -341 218 -366 218 -3 0
-41 -75 -85 -166 -44 -92 -84 -163 -89 -158 -4 5 -14 32 -23 59 -78 262 -140
461 -146 468 -4 4 -26 -42 -49 -102 -54 -139 -145 -323 -211 -426 -46 -71 -50
-81 -35 -90 319 -192 611 -474 814 -785 130 -201 255 -494 296 -700 16 -82 18
-86 73 -137 46 -44 62 -53 86 -51 29 3 31 8 66 111 19 59 40 112 45 117 7 7
48 10 100 8 l89 -3 35 -113 c45 -145 49 -147 159 -58 45 36 88 66 97 66 25 0
144 -90 144 -109 0 -9 -11 -55 -25 -102 -44 -152 -35 -166 119 -176 l96 -6 16
-51 c8 -28 18 -74 21 -101 l5 -50 -78 -45 c-99 -57 -114 -71 -114 -115 0 -26
9 -44 36 -72 20 -21 52 -57 71 -80 l35 -43 -47 -80 c-26 -44 -51 -80 -55 -80
-5 0 -44 7 -87 15 -107 21 -126 19 -154 -11 -22 -24 -24 -33 -24 -136 l0 -111
-93 -36 -94 -35 -19 24 c-11 14 -38 55 -60 93 -39 64 -43 67 -80 67 -36 0 -41
-4 -110 -94 l-72 -94 -36 13 c-20 7 -61 23 -90 36 l-54 23 6 90 c2 50 8 98 12
108 4 10 -4 27 -23 49 l-30 34 -89 -18 c-48 -10 -93 -24 -99 -32 -6 -8 -20
-63 -33 -122 -12 -59 -24 -117 -26 -128 -3 -13 -22 -27 -52 -39 -170 -70 -227
-279 -110 -404 29 -32 105 -70 148 -74 28 -3 35 -9 37 -30 2 -20 -3 -28 -28
-38 -42 -18 -77 -62 -95 -122 -10 -35 -26 -61 -51 -82 -37 -32 -38 -32 -88
-19 -65 17 -91 16 -154 -2 -97 -29 -156 -104 -168 -212 -4 -39 -13 -63 -26
-73 -17 -14 -22 -12 -69 32 -37 34 -67 53 -107 64 -170 50 -302 -55 -308 -245
-2 -92 -18 -103 -53 -36 -46 86 -141 155 -216 155 -68 0 -150 -51 -182 -114
-9 -17 -19 -66 -23 -109 -4 -42 -9 -79 -11 -81 -2 -2 -22 -7 -44 -10 -39 -6
-40 -5 -58 34 -25 53 -98 127 -150 150 -120 55 -271 -16 -307 -145 -12 -43
-14 -45 -49 -44 -60 2 -79 12 -110 61 -40 64 -98 100 -166 106 -86 7 -122 -4
-171 -53 -39 -40 -47 -43 -70 -35 -36 14 -43 12 -13 -5 37 -20 253 -73 372
-91 139 -21 618 -31 741 -15 577 76 1075 306 1514 699 119 107 342 358 474
534 l65 88 78 -103 c43 -56 125 -164 183 -240 57 -76 108 -137 113 -135 4 2
47 39 96 83 282 256 454 474 594 750 143 284 213 547 228 855 l7 145 21 -90
c82 -336 64 -786 -47 -1188 -62 -227 -148 -425 -250 -581 -67 -103 -67 -103
-30 -111 40 -9 99 -60 116 -102 18 -43 18 -74 -2 -123 -14 -34 -49 -68 -198
-188 -99 -80 -244 -198 -321 -262 -77 -63 -154 -127 -171 -140 -17 -14 -100
-81 -185 -150 -284 -230 -624 -491 -627 -481 -3 10 20 119 150 701 38 173 87
396 109 495 21 99 41 186 44 193 11 30 -19 6 -91 -73 -88 -96 -339 -331 -429
-401 -334 -261 -688 -412 -1140 -485 -189 -30 -562 -38 -745 -15 -369 47 -602
115 -915 266 -187 91 -427 240 -594 369 l-25 19 60 7 c32 3 97 13 144 21 459
79 875 430 1035 874 63 175 95 426 76 594 -42 372 -219 664 -521 858 -41 26
-78 48 -82 48 -5 0 -8 -22 -8 -50 0 -58 5 -56 -135 -64 -188 -12 -380 -59
-532 -131 l-92 -43 -33 44 c-31 41 -61 61 -82 56 -10 -3 -44 26 -57 49 -11 21
53 65 217 147 180 91 321 144 476 181 73 17 73 17 93 -56 23 -87 24 -89 42
-61 9 13 61 83 116 156 59 77 97 136 91 141 -18 17 -315 153 -321 147 -3 -3 0
-33 7 -66 8 -36 9 -64 4 -69 -5 -5 -52 -21 -104 -36 -289 -82 -534 -203 -774
-382 -98 -73 -99 -74 -117 -54 -12 13 -26 18 -37 14 -36 -13 -100 -63 -136
-107 -20 -25 -43 -46 -50 -46 -8 0 -32 -29 -55 -64 -37 -57 -40 -66 -30 -89
11 -24 8 -30 -36 -79 -26 -29 -59 -70 -73 -91 -14 -20 -27 -36 -29 -34 -2 2
11 44 28 93 105 299 293 541 594 764 224 167 527 317 793 394 171 50 174 49
201 -20 11 -31 21 -62 21 -69 0 -38 28 -11 135 132 65 87 119 162 121 168 4
10 -373 171 -381 163 -2 -2 4 -37 15 -78 11 -41 18 -75 17 -76 -1 -1 -47 -14
-102 -29 -205 -55 -515 -190 -710 -309 -49 -30 -91 -51 -93 -47 -10 29 158
325 277 486 91 123 302 334 439 439 105 79 322 215 400 250 23 11 42 22 42 27
0 4 -20 42 -45 83 -65 111 -101 185 -149 308 -33 83 -46 106 -54 95 -6 -7 -73
-134 -150 -282 -156 -303 -229 -441 -248 -468 -12 -18 -12 -18 -18 0 -10 36
-55 279 -67 368 -7 50 -14 91 -15 93 -4 6 -87 -40 -149 -81 -206 -138 -386
-294 -522 -452 -116 -134 -184 -235 -256 -380 -86 -173 -84 -161 -49 -300 16
-66 33 -132 36 -147 l6 -27 121 -3 121 -3 -158 -140 c-88 -77 -214 -191 -282
-254 -68 -62 -124 -112 -125 -110 -2 2 -8 15 -14 29 -10 24 -11 23 -40 -35
-119 -238 -198 -586 -210 -925 -15 -436 83 -854 307 -1300 183 -365 488 -773
816 -1090 71 -68 122 -120 114 -115 -160 95 -485 399 -653 610 -417 524 -702
1175 -784 1792 -24 180 -24 573 1 738 20 139 55 296 97 444 17 57 29 105 27
107 -2 2 -21 -1 -42 -7 -30 -8 -42 -7 -62 6 -31 20 -47 60 -41 102 3 17 67
161 142 320 274 580 399 775 683 1068 195 201 416 371 636 491 69 37 122 71
118 75 -11 11 -296 177 -336 196 -20 9 -36 20 -36 24 0 14 384 61 753 91 l278
23 15 55 c41 148 79 256 129 358 32 67 49 112 41 112 -19 0 -199 -62 -346
-120 -151 -60 -505 -236 -649 -324 -315 -192 -510 -347 -767 -608 -163 -165
-245 -259 -341 -390 -413 -559 -650 -1140 -749 -1835 -22 -148 -30 -679 -15
-855 40 -442 156 -891 327 -1270 270 -599 714 -1142 1243 -1522 459 -330 1032
-581 1561 -685 280 -55 404 -65 780 -66 382 0 446 6 781 71 350 67 760 219
1110 410 683 372 1278 996 1607 1684 195 407 319 858 374 1350 19 176 16 662
-6 840 -33 276 -92 528 -190 815 -151 447 -356 819 -654 1190 -123 153 -415
447 -555 557 -310 246 -653 457 -952 585 -171 74 -504 193 -539 193 -4 0 11
-33 33 -74z m816 -1530 c117 -87 301 -278 390 -402 95 -135 203 -349 254 -509
38 -115 86 -325 79 -345 -2 -5 -37 66 -78 158 -209 463 -420 780 -776 1164
-24 26 -44 50 -44 53 0 7 71 -40 175 -119z m-4160 -1727 c11 -32 14 -34 51
-30 49 4 50 5 57 39 7 33 42 40 89 16 30 -16 33 -29 14 -74 -4 -10 8 -24 35
-44 l40 -28 28 26 c15 14 31 26 35 26 10 0 43 -38 61 -72 15 -27 14 -28 -20
-50 -59 -39 -43 -108 25 -108 l40 0 0 -60 0 -60 -37 0 c-34 0 -41 -5 -61 -40
l-22 -39 25 -17 c34 -22 32 -33 -15 -79 l-40 -39 -23 22 c-28 26 -40 27 -73 5
-21 -13 -25 -23 -22 -52 l3 -36 -50 -7 c-67 -10 -75 -6 -75 42 0 36 -3 40 -24
40 -13 0 -30 2 -38 5 -7 3 -23 -10 -36 -30 l-23 -36 -40 23 c-60 34 -66 44
-41 77 l21 28 -32 31 c-24 23 -36 29 -47 22 -35 -23 -60 -11 -80 36 -26 61
-25 72 8 80 51 11 52 12 52 63 0 46 -3 51 -35 71 -19 12 -35 24 -35 27 0 12
51 93 58 93 4 0 18 -7 30 -16 22 -15 25 -14 61 19 37 33 37 34 22 66 -14 29
-14 34 -1 41 8 5 31 20 50 34 19 14 39 24 44 22 5 -1 15 -18 21 -37z m-596
-814 c24 -161 75 -369 127 -517 51 -146 209 -464 293 -588 160 -238 387 -488
593 -655 90 -72 314 -223 443 -298 79 -45 296 -147 314 -147 6 0 12 -4 15 -9
5 -8 -151 22 -255 49 -165 42 -427 168 -652 313 -43 27 -79 48 -82 46 -6 -7
159 -200 291 -340 66 -69 174 -175 241 -235 66 -60 120 -110 118 -112 -4 -5
-173 96 -245 146 -133 94 -270 211 -426 367 -294 292 -519 609 -669 945 -160
357 -237 723 -221 1058 7 166 19 243 59 407 l32 130 6 -245 c4 -135 12 -276
18 -315z m1655 294 c-1 -8 -4 -28 -8 -45 -6 -27 -3 -34 28 -58 l35 -26 36 31
c20 18 37 30 39 28 1 -2 19 -26 40 -53 l37 -50 -32 -32 c-29 -30 -31 -36 -23
-66 9 -31 13 -33 59 -38 l50 -5 0 -60 0 -60 -46 -8 c-43 -8 -47 -12 -60 -49
-13 -39 -12 -41 16 -65 28 -25 28 -25 11 -57 -9 -17 -25 -42 -35 -55 l-18 -24
-36 27 -35 27 -31 -27 c-29 -24 -31 -30 -25 -69 l6 -42 -48 -17 c-63 -21 -62
-21 -81 19 -15 32 -20 35 -60 35 -38 0 -45 -3 -53 -27 -23 -63 -40 -70 -91
-33 -40 28 -44 11 -7 -25 18 -18 39 -40 46 -49 11 -14 16 -14 47 -2 39 17 38
18 58 -51 l16 -53 -40 -10 c-38 -11 -39 -12 -39 -56 0 -42 2 -45 31 -51 40 -8
44 -22 24 -83 -14 -41 -20 -50 -34 -44 -41 17 -57 15 -85 -15 l-28 -30 23 -32
23 -32 -44 -40 -45 -39 -26 32 c-24 28 -30 31 -63 25 -35 -7 -36 -9 -36 -51
l0 -44 -60 0 -60 0 0 45 c0 42 -1 44 -37 55 -36 10 -39 9 -69 -25 l-31 -35
-41 31 c-23 17 -42 33 -42 37 0 3 12 18 26 33 l26 27 -24 36 c-23 37 -43 42
-89 22 -11 -5 -20 3 -32 31 -28 66 -26 76 16 86 35 8 37 11 37 48 0 40 -18 59
-59 59 -30 0 -32 12 -15 69 l15 52 43 -6 c40 -6 45 -5 65 24 l23 31 -26 31
c-14 17 -26 34 -26 37 0 4 20 22 45 40 l44 34 29 -33 c28 -31 30 -32 60 -18
27 12 31 19 34 59 l3 45 50 0 50 0 3 -42 c3 -39 5 -43 37 -49 28 -5 40 -1 65
20 30 25 33 25 61 10 17 -8 38 -14 47 -12 12 3 4 11 -25 26 -23 12 -44 22 -47
22 -3 0 -21 -14 -40 -31 l-35 -30 -35 53 c-20 29 -36 56 -36 61 0 4 16 15 35
23 40 17 40 15 19 71 -17 42 -17 43 -65 43 l-49 0 0 59 c0 65 6 71 64 71 31 0
33 3 44 48 9 40 9 48 -5 57 -9 6 -27 19 -40 30 l-23 20 32 47 c18 26 38 48 44
48 6 0 23 -9 37 -20 33 -26 41 -25 82 6 34 26 34 26 19 62 -8 19 -11 39 -7 43
5 3 32 14 62 24 60 19 71 14 71 -37 0 -27 2 -28 49 -28 48 0 49 0 56 37 4 21
9 41 11 44 8 13 119 -27 118 -42z m2510 -2730 c4 -29 3 -55 -1 -59 -4 -4 -61
-21 -127 -38 -65 -17 -120 -32 -121 -34 -5 -5 16 -112 23 -119 6 -6 171 37
212 55 12 5 18 -5 26 -49 l10 -55 -51 -14 c-27 -8 -79 -22 -113 -32 l-64 -17
7 -56 c4 -31 9 -59 11 -62 1 -3 61 9 131 28 70 18 133 33 140 33 11 0 38 -98
29 -107 -6 -6 -173 -48 -304 -77 l-110 -23 -15 86 c-37 204 -80 491 -75 496 3
3 55 17 114 31 60 13 138 33 174 43 96 29 96 29 104 -30z m-2173 12 l55 -12
38 -212 c54 -299 76 -421 76 -425 0 -6 -104 10 -120 18 -8 5 -22 37 -30 71
l-15 63 -95 23 c-138 32 -142 32 -185 -28 -20 -28 -42 -49 -48 -46 -7 2 -36
12 -65 21 l-52 18 61 86 c33 48 115 167 182 264 67 98 127 176 132 174 6 -2
35 -9 66 -15z m757 -136 c87 -39 91 -46 51 -93 l-33 -39 -45 20 c-107 47 -228
11 -279 -83 -33 -64 -28 -152 12 -205 49 -63 156 -94 231 -65 24 9 26 14 23
62 l-3 53 -50 3 c-27 2 -52 5 -54 7 -1 2 0 27 4 54 l7 51 76 0 c43 0 94 -3
115 -6 l37 -7 0 -137 c0 -159 2 -156 -100 -190 -134 -45 -303 -12 -379 76 -54
61 -74 112 -79 200 -4 72 -1 89 21 137 79 172 269 241 445 162z m676 -52 c3
-43 11 -151 17 -240 l12 -161 36 5 c20 3 74 11 120 19 47 7 86 12 88 11 6 -6
23 -110 19 -115 -6 -5 -332 -52 -367 -52 l-26 0 -6 113 c-4 61 -10 199 -13
305 l-7 192 60 0 61 0 6 -77z m-284 -238 l0 -305 -65 0 -65 0 0 305 0 305 65
0 65 0 0 -305z"/>
<path d="M2702 5189 c-105 -52 -132 -185 -54 -271 45 -50 80 -68 132 -68 76 0
138 37 171 102 46 90 -1 200 -103 243 -51 21 -95 19 -146 -6z"/>
<path d="M3545 4671 c-93 -23 -152 -81 -176 -173 -34 -126 86 -268 225 -268
41 0 124 40 158 76 102 109 61 293 -77 349 -43 18 -95 24 -130 16z"/>
<path d="M3130 3997 c-19 -6 -53 -30 -76 -52 -92 -93 -76 -242 34 -320 38 -26
52 -30 111 -30 57 0 74 4 109 27 50 33 90 99 98 160 5 37 1 57 -19 101 -47
103 -149 148 -257 114z"/>
<path d="M4019 1913 c-44 -58 -92 -134 -87 -138 10 -9 158 -41 158 -34 0 11
-30 200 -33 212 -1 4 -19 -14 -38 -40z"/>
<path d="M6310 8062 c0 -14 113 -459 119 -471 13 -22 78 105 86 169 4 30 10
60 14 67 6 11 220 121 280 144 13 5 22 12 19 14 -2 2 -92 18 -199 34 -287 44
-319 48 -319 43z"/>
<path d="M3610 7973 c-123 -9 -415 -35 -418 -37 -2 -3 67 -44 199 -120 l47
-26 6 -168 c8 -193 14 -245 28 -236 10 6 68 126 128 264 18 41 56 122 85 180
77 154 76 150 18 148 -26 -1 -68 -3 -93 -5z"/>
<path d="M5240 6663 c-11 -37 -31 -117 -43 -177 -12 -61 -26 -114 -32 -118 -5
-4 -31 -12 -58 -19 l-47 -11 -73 58 c-39 32 -100 82 -134 112 l-62 54 -38 -23
c-21 -13 -85 -54 -141 -92 -94 -62 -103 -71 -98 -93 4 -14 36 -89 71 -167 36
-78 65 -145 65 -149 0 -5 -16 -25 -35 -47 l-35 -38 -127 22 c-71 13 -144 26
-163 29 l-35 7 -51 -93 c-58 -105 -90 -174 -99 -210 -6 -23 6 -35 128 -126
149 -112 213 -182 275 -304 l38 -75 31 36 c27 33 30 45 36 127 13 212 140 446
318 588 92 73 233 141 331 161 172 34 352 13 494 -58 113 -55 155 -86 244
-176 154 -156 240 -348 240 -533 0 -71 3 -82 30 -119 64 -88 88 -225 60 -344
-5 -22 -7 -41 -5 -44 6 -5 186 17 280 36 82 16 155 40 155 52 0 3 -20 14 -44
24 -80 33 -78 29 -64 145 l12 102 40 11 c90 23 115 32 111 40 -3 4 -72 33
-153 65 -81 31 -151 60 -156 65 -15 13 -24 95 -12 110 6 8 45 43 86 78 41 35
97 84 123 108 l48 45 -77 147 c-42 80 -77 147 -79 149 -4 4 -171 -24 -259 -44
l-69 -15 -28 33 c-16 18 -28 37 -29 42 0 5 24 74 54 155 77 209 77 187 -7 247
-40 28 -102 70 -140 93 l-67 41 -48 -42 c-26 -23 -81 -75 -123 -116 l-76 -74
-56 12 c-30 7 -59 16 -64 19 -5 3 -15 31 -21 61 -7 30 -29 110 -49 178 l-36
122 -158 0 -158 0 -21 -67z"/>
<path d="M1907 6230 c-86 -167 -155 -306 -152 -308 3 -3 44 10 92 27 49 18 95
35 103 37 15 5 45 -55 111 -217 l23 -56 78 65 c43 36 78 69 78 75 0 13 -159
638 -168 661 -7 15 -44 -49 -165 -284z"/>
<path d="M5290 5796 c-189 -53 -328 -212 -338 -387 l-4 -76 -67 -5 c-167 -12
-279 -129 -289 -302 l-5 -79 24 6 c13 4 27 7 32 7 4 0 7 22 7 49 0 98 85 205
183 232 52 14 122 8 167 -14 18 -10 34 -17 34 -17 1 0 1 46 1 103 0 95 2 107
33 169 38 78 110 148 192 187 48 23 68 26 155 26 85 0 107 -4 148 -24 72 -35
152 -113 184 -179 26 -52 28 -66 28 -173 l0 -116 37 19 c47 25 131 33 185 19
101 -27 183 -134 183 -237 0 -54 0 -54 31 -54 l31 0 -4 78 c-5 96 -25 139 -98
213 -63 64 -123 89 -210 89 l-57 0 -5 75 c-12 180 -163 352 -349 394 -59 14
-174 12 -229 -3z"/>
<path d="M5305 5528 c-21 -13 -53 -43 -70 -66 -28 -40 -30 -50 -30 -127 0 -76
3 -87 30 -127 42 -60 104 -90 176 -86 119 8 191 84 197 207 4 81 -24 141 -87
186 -35 24 -54 30 -109 33 -55 2 -74 -1 -107 -20z"/>
<path d="M7283 5455 c-90 -20 -158 -59 -241 -141 -108 -107 -152 -218 -152
-383 0 -143 55 -267 165 -370 105 -98 211 -141 348 -141 194 0 389 121 470
291 78 165 76 338 -5 492 -36 67 -141 170 -214 209 -104 56 -239 72 -371 43z
m284 -139 c112 -52 190 -138 225 -248 59 -191 -31 -404 -204 -483 -168 -77
-348 -46 -467 80 -29 30 -64 81 -79 112 -24 52 -27 69 -27 168 0 101 2 115 28
168 51 103 170 198 285 227 63 16 175 5 239 -24z"/>
<path d="M7316 5194 c-107 -34 -186 -161 -173 -276 12 -99 96 -203 185 -228
177 -49 352 77 352 254 0 103 -57 193 -153 242 -44 23 -151 27 -211 8z"/>
<path d="M4820 5110 c-61 -61 -20 -180 62 -180 62 0 97 35 98 97 0 62 -37 103
-96 103 -30 0 -50 -6 -64 -20z"/>
<path d="M5872 5110 c-43 -41 -41 -124 5 -160 78 -61 189 29 149 123 -8 20
-23 40 -34 46 -34 18 -96 13 -120 -9z"/>
<path d="M5170 5074 c-85 -39 -190 -154 -190 -207 0 -7 -6 -22 -14 -32 -12
-17 -13 -13 -9 31 l5 49 -100 0 c-86 0 -105 -3 -128 -21 -33 -24 -60 -60 -69
-91 l-6 -23 745 0 746 0 0 24 c0 32 -34 73 -78 95 -29 14 -59 18 -137 17 -109
-1 -104 3 -92 -66 6 -30 5 -29 -9 10 -33 90 -114 176 -209 220 -22 10 -82 14
-217 16 -177 1 -190 0 -238 -22z"/>
<path d="M4670 4665 c0 -2 8 -20 17 -40 14 -29 15 -43 6 -83 -7 -26 -15 -90
-18 -142 -4 -52 -13 -129 -21 -170 -8 -41 -14 -80 -14 -85 0 -13 202 -145 221
-145 8 0 68 50 132 111 80 75 123 108 135 105 9 -3 36 -10 59 -17 32 -9 43
-18 48 -38 3 -14 26 -90 51 -168 l46 -143 138 0 c213 0 190 -17 234 173 21 89
40 168 44 176 4 7 29 21 56 32 l49 18 101 -72 c56 -40 115 -83 133 -96 l31
-23 110 77 c60 42 120 87 133 101 l22 24 -38 97 c-21 54 -53 131 -72 172 l-33
74 21 33 21 34 -122 0 -122 0 -63 -50 c-213 -170 -439 -232 -677 -186 -150 29
-260 84 -373 188 l-53 48 -101 0 c-56 0 -101 -2 -101 -5z"/>
<path d="M6238 3874 c-193 -59 -172 -340 27 -369 58 -9 96 0 144 36 76 54 101
150 62 234 -24 51 -56 81 -110 100 -52 18 -62 18 -123 -1z"/>
<path d="M5705 3666 c-43 -18 -92 -78 -105 -127 -35 -131 86 -251 220 -219 60
14 124 68 140 116 28 84 -16 189 -93 225 -49 22 -119 24 -162 5z"/>
<path d="M7367 3257 c2 -216 5 -420 9 -454 l5 -62 149 132 c81 73 231 204 333
292 102 88 186 162 186 165 0 3 -57 37 -127 76 l-128 70 -91 -83 -90 -83 -113
160 c-62 88 -118 164 -124 169 -8 7 -10 -96 -9 -382z"/>
<path d="M5230 3488 c-53 -28 -80 -62 -90 -118 -26 -140 112 -242 246 -181
131 59 133 235 3 301 -50 26 -105 25 -159 -2z"/>
<path d="M4743 3391 c-119 -55 -129 -222 -17 -292 81 -49 201 -13 243 74 26
53 26 80 2 132 -43 93 -135 128 -228 86z"/>
<path d="M4242 3310 c-101 -62 -95 -212 11 -260 53 -24 81 -25 133 -1 73 33
106 140 64 209 -28 45 -76 72 -130 72 -27 0 -58 -8 -78 -20z"/>
</g>
</svg>
