<?xml version="1.0" standalone="no"?>
<!DOCTYPE svg PUBLIC "-//W3C//DTD SVG 20010904//EN"
 "http://www.w3.org/TR/2001/REC-SVG-20010904/DTD/svg10.dtd">
<svg version="1.0" xmlns="http://www.w3.org/2000/svg"
 width="512.000000pt" height="512.000000pt" viewBox="0 0 512.000000 512.000000"
 preserveAspectRatio="xMidYMid meet">

<g transform="translate(0.000000,512.000000) scale(0.100000,-0.100000)"
fill="#000000" stroke="none">
<path d="M207 4996 c-58 -21 -114 -62 -147 -108 -64 -88 -60 74 -58 -2348 l3
-2205 28 -57 c30 -61 74 -105 140 -140 l42 -23 2345 0 2345 0 42 23 c66 35
110 79 140 140 26 53 28 67 31 205 4 165 -3 199 -49 222 -35 19 -63 19 -98 1
-42 -22 -51 -54 -51 -192 0 -138 -10 -172 -55 -192 -19 -9 -154 -12 -500 -12
l-475 0 0 1660 0 1660 515 0 515 0 0 -1065 c0 -744 3 -1071 11 -1088 6 -13 23
-31 39 -40 44 -26 78 -21 116 17 l34 34 -2 1649 -3 1648 -28 57 c-30 61 -74
105 -140 140 l-42 23 -2330 2 c-1942 2 -2336 0 -2368 -11z m1023 -671 l0 -485
-515 0 -515 0 0 438 c0 396 2 440 18 472 9 19 28 40 42 47 19 10 140 13 498
13 l472 0 0 -485z m1230 0 l0 -485 -515 0 -515 0 0 485 0 485 515 0 515 0 0
-485z m1230 0 l0 -485 -515 0 -515 0 0 485 0 485 515 0 515 0 0 -485z m1177
465 c21 -13 35 -31 42 -57 7 -24 11 -196 11 -465 l0 -428 -515 0 -515 0 0 485
0 485 473 0 c450 0 473 -1 504 -20z m-3637 -2820 l0 -1660 -475 0 c-346 0
-481 3 -500 12 -58 26 -55 -75 -55 1688 l0 1620 515 0 515 0 0 -1660z m1230 0
l0 -1660 -515 0 -515 0 0 1660 0 1660 515 0 515 0 0 -1660z m1230 0 l0 -1660
-515 0 -515 0 0 1660 0 1660 515 0 515 0 0 -1660z"/>
<path d="M474 3320 c-51 -20 -54 -37 -54 -293 l0 -239 29 -29 29 -29 231 0
c151 0 239 4 255 11 51 24 57 58 54 305 l-3 226 -33 29 -32 29 -228 -1 c-125
0 -237 -4 -248 -9z m336 -290 l0 -100 -95 0 -95 0 0 100 0 100 95 0 95 0 0
-100z"/>
<path d="M468 2255 c-15 -9 -32 -24 -38 -35 -6 -11 -10 -113 -10 -255 l0 -237
29 -29 29 -29 239 0 c260 0 269 2 292 58 9 20 11 96 9 255 l-3 227 -28 27 -27
28 -233 2 c-191 2 -237 0 -259 -12z m342 -290 l0 -95 -95 0 -95 0 0 95 0 95
95 0 95 0 0 -95z"/>
<path d="M1687 3309 c-43 -33 -49 -75 -45 -307 l3 -214 33 -29 32 -29 235 0
235 0 32 29 33 29 3 214 c4 232 -2 274 -45 307 -24 20 -39 21 -258 21 -219 0
-234 -1 -258 -21z m353 -279 l0 -100 -95 0 -95 0 0 100 0 100 95 0 95 0 0
-100z"/>
<path d="M1694 2251 c-47 -29 -54 -63 -54 -276 0 -221 3 -246 38 -280 l25 -25
242 0 242 0 25 25 c35 34 38 59 38 282 0 302 9 293 -307 293 -197 0 -221 -2
-249 -19z m346 -281 l0 -100 -95 0 -95 0 0 100 0 100 95 0 95 0 0 -100z"/>
<path d="M1702 1195 c-61 -27 -75 -110 -26 -158 32 -32 67 -37 269 -37 202 0
237 5 269 37 50 49 35 132 -28 158 -50 21 -436 21 -484 0z"/>
<path d="M1713 799 c-41 -12 -65 -47 -65 -94 0 -80 47 -105 197 -105 150 0
197 25 197 105 0 49 -25 82 -69 94 -46 13 -216 13 -260 0z"/>
<path d="M2917 3309 c-43 -33 -49 -75 -45 -307 l3 -214 33 -29 32 -29 235 0
235 0 32 29 33 29 3 214 c4 232 -2 274 -45 307 -24 20 -39 21 -258 21 -219 0
-234 -1 -258 -21z m353 -279 l0 -100 -95 0 -95 0 0 100 0 100 95 0 95 0 0
-100z"/>
<path d="M2924 2251 c-47 -29 -54 -63 -54 -276 0 -221 3 -246 38 -280 l25 -25
242 0 242 0 25 25 c35 34 38 59 38 282 0 302 9 293 -307 293 -197 0 -221 -2
-249 -19z m346 -281 l0 -100 -95 0 -95 0 0 100 0 100 95 0 95 0 0 -100z"/>
<path d="M2932 1195 c-66 -29 -75 -130 -14 -171 23 -16 52 -19 211 -22 228 -5
281 1 314 34 49 48 37 126 -23 156 -30 16 -65 18 -245 18 -159 -1 -218 -4
-243 -15z"/>
<path d="M2940 797 c-49 -17 -76 -73 -60 -122 19 -56 48 -69 170 -73 122 -5
183 8 206 43 30 47 17 115 -29 145 -30 19 -239 25 -287 7z"/>
<path d="M4134 3296 l-34 -34 0 -226 c0 -247 5 -271 55 -294 18 -8 99 -12 256
-12 l231 0 29 29 29 29 0 239 c0 210 -2 240 -18 259 -33 41 -52 44 -287 44
l-227 0 -34 -34z m366 -271 l0 -95 -95 0 -95 0 0 95 0 95 95 0 95 0 0 -95z"/>
<path d="M4164 2260 c-12 -4 -31 -21 -43 -36 -21 -27 -22 -34 -19 -267 l3
-239 28 -24 c28 -24 29 -24 268 -24 l241 0 29 29 29 29 0 231 c0 157 -4 238
-12 256 -23 50 -48 55 -285 54 -120 0 -228 -4 -239 -9z m336 -295 l0 -95 -95
0 -95 0 0 95 0 95 95 0 95 0 0 -95z"/>
<path d="M4971 1156 c-110 -61 -22 -227 92 -175 27 12 57 58 57 88 0 75 -83
124 -149 87z"/>
</g>
</svg>
