<?xml version="1.0" standalone="no"?>
<!DOCTYPE svg PUBLIC "-//W3C//DTD SVG 20010904//EN"
 "http://www.w3.org/TR/2001/REC-SVG-20010904/DTD/svg10.dtd">
<svg version="1.0" xmlns="http://www.w3.org/2000/svg"
 width="1024.000000pt" height="1024.000000pt" viewBox="0 0 1024.000000 1024.000000"
 preserveAspectRatio="xMidYMid meet">

<g transform="translate(0.000000,1024.000000) scale(0.100000,-0.100000)"
fill="#000000" stroke="none">
<path d="M3192 8085 c-29 -8 -66 -22 -83 -31 -52 -27 -115 -98 -150 -170 l-34
-69 -3 -572 -3 -573 151 0 150 0 0 460 0 460 1890 0 1890 0 0 -565 0 -565 155
0 156 0 -3 673 -3 672 -32 67 c-42 89 -101 151 -182 191 l-66 32 -1890 2
c-1608 2 -1898 0 -1943 -12z"/>
<path d="M3419 7431 c-35 -36 -37 -64 -4 -96 l24 -25 331 0 c317 0 331 1 350
20 30 30 27 83 -6 109 -26 20 -38 21 -346 21 l-320 0 -29 -29z"/>
<path d="M3390 6911 l0 -258 63 -13 c219 -43 403 -203 475 -414 l27 -81 3
-1577 2 -1578 213 -1 c116 -1 237 -4 267 -7 52 -7 55 -9 58 -37 2 -16 10 -52
19 -80 63 -200 226 -353 421 -394 36 -7 288 -11 792 -11 407 0 740 -3 740 -7
0 -3 -14 -57 -32 -120 l-31 -113 -193 0 -192 0 -31 -26 c-30 -25 -31 -28 -31
-115 l0 -89 -140 0 c-77 0 -140 2 -140 5 0 2 20 35 44 72 24 37 62 103 85 145
l42 77 -448 3 c-439 3 -449 4 -513 26 -188 67 -363 228 -444 410 l-19 42 -232
0 -232 0 -5 -172 c-7 -210 -22 -270 -101 -380 -65 -91 -164 -167 -271 -209
-43 -16 -80 -28 -82 -26 -2 2 19 21 47 42 59 45 132 136 161 202 56 127 52 -6
56 1963 2 1260 0 1835 -8 1880 -31 190 -191 354 -379 390 -34 6 -336 10 -806
10 -711 0 -756 -1 -828 -19 -100 -26 -143 -49 -215 -116 -72 -67 -113 -128
-141 -212 -21 -62 -21 -66 -21 -1896 0 -2035 -5 -1882 68 -2021 23 -44 64 -99
108 -143 l71 -73 -192 0 c-169 0 -195 -2 -213 -17 -32 -27 -33 -86 -3 -103 13
-6 1278 -10 3900 -12 3837 -2 3882 -2 3900 17 31 32 34 59 10 88 l-20 27 -610
0 -609 0 0 84 c0 46 -3 92 -6 101 -14 36 -57 45 -217 45 l-154 0 -32 108 c-17
59 -31 113 -31 120 0 9 127 12 603 12 377 0 619 4 647 11 188 43 360 210 416
405 16 54 18 156 21 1119 2 583 0 1240 -5 1460 l-8 400 -35 75 c-69 145 -173
246 -314 303 l-80 32 -1775 3 c-1198 1 -1791 -1 -1825 -8 -27 -6 -74 -22 -104
-35 -30 -14 -56 -23 -58 -21 -11 10 166 147 232 180 147 72 111 69 988 73
l787 4 0 354 0 355 -1720 0 -1720 0 0 -259z m-404 -744 c32 -38 31 -72 -5
-108 l-29 -29 -382 0 -382 0 -29 29 c-38 38 -38 74 1 112 l29 30 386 -3 387
-3 24 -28z m5505 -288 c66 -31 124 -87 153 -149 l21 -45 0 -1315 c0 -1207 -1
-1318 -17 -1350 -35 -75 -76 -118 -140 -149 l-63 -31 -1695 2 c-1630 3 -1696
4 -1730 22 -59 31 -119 96 -140 154 -20 52 -20 79 -20 1346 0 1427 -3 1351 63
1438 53 69 104 92 222 99 55 3 818 6 1695 5 l1595 -1 56 -26z m-5111 -168 l0
-108 -52 -7 c-70 -8 -1355 -8 -1480 1 l-98 6 0 109 0 108 815 0 815 0 0 -109z
m10 -2716 l0 -75 -820 0 -820 0 0 75 0 75 820 0 820 0 0 -75z m-1333 -320 c95
-40 145 -113 145 -213 0 -69 -18 -115 -63 -161 -91 -91 -217 -95 -315 -9 -49
44 -74 99 -74 171 0 94 43 166 123 206 51 25 132 28 184 6z m1188 -4 c100 -45
158 -154 135 -252 -17 -70 -64 -128 -129 -161 -86 -44 -166 -35 -239 28 -59
50 -82 99 -82 175 0 103 53 183 142 216 49 17 128 15 173 -6z m-600 -81 c48
-29 78 -92 72 -147 -9 -80 -66 -134 -149 -141 -64 -5 -110 22 -145 83 -29 51
-29 97 -1 146 47 84 142 109 223 59z"/>
<path d="M5360 4355 l0 -1055 1570 0 1570 0 0 1055 0 1055 -1570 0 -1570 -1 0
-1054z"/>
</g>
</svg>
